HIERARCHY
ROOT Hips
{
	OFFSET 0.00 0.00 0.00
	CHANNELS 6 Xposition Yposition Zposition Xrotation Yrotation Zrotation
	JOINT LeftUpLeg
	{
		OFFSET 3.10215 0.00000 0.00000
		CHANNELS 3 Xrotation Yrotation Zrotation
		JOINT LeftLeg
		{
			OFFSET 0.00000 -16.83331 0.00000
			CHANNELS 3 Xrotation Yrotation Zrotation
			JOINT LeftFoot
			{
				OFFSET 0.00000 -15.53879 0.00000
				CHANNELS 3 Xrotation Yrotation Zrotation
				JOINT LeftToeBase
				{
					OFFSET 0.00000 -1.57366 5.87297
					CHANNELS 3 Xrotation Yrotation Zrotation
					End Site
					{
						OFFSET 0.00000 0.00000 2.95275
					}
				}
			}
		}
	}
	JOINT RightUpLeg
	{
		OFFSET -3.10215 0.00000 0.00000
		CHANNELS 3 Xrotation Yrotation Zrotation
		JOINT RightLeg
		{
			OFFSET 0.00000 -16.83331 0.00000
			CHANNELS 3 Xrotation Yrotation Zrotation
			JOINT RightFoot
			{
				OFFSET 0.00000 -15.53879 0.00000
				CHANNELS 3 Xrotation Yrotation Zrotation
				JOINT RightToeBase
				{
					OFFSET 0.00000 -1.57366 5.87297
					CHANNELS 3 Xrotation Yrotation Zrotation
					End Site
					{
						OFFSET 0.00000 0.00000 2.95275
					}
				}
			}
		}
	}
	JOINT Spine
	{
		OFFSET 0.00000 0.03937 0.00000
		CHANNELS 3 Xrotation Yrotation Zrotation
		JOINT Spine1
		{
			OFFSET 0.00000 8.31046 0.00000
			CHANNELS 3 Xrotation Yrotation Zrotation
			JOINT Neck
			{
				OFFSET 0.00000 6.25463 0.00000
				CHANNELS 3 Xrotation Yrotation Zrotation
				JOINT Head
				{
					OFFSET 0.00000 8.60817 0.00000
					CHANNELS 3 Xrotation Yrotation Zrotation
					End Site
					{
						OFFSET 0.00000 4.52755 0.00000
					}
				}
			}
			JOINT LeftShoulder
			{
				OFFSET 0.00000 6.25463 0.00000
				CHANNELS 3 Xrotation Yrotation Zrotation
				JOINT LeftArm
				{
					OFFSET 7.44857 -0.00003 0.00000
					CHANNELS 3 Xrotation Yrotation Zrotation
					JOINT LeftForeArm
					{
						OFFSET 10.73545 -0.00004 0.00000
						CHANNELS 3 Xrotation Yrotation Zrotation
						JOINT LeftHand
						{
							OFFSET 10.15840 -0.00004 0.00000
							CHANNELS 3 Xrotation Yrotation Zrotation
							JOINT LeftHandThumb
							{
								OFFSET 0.00000 0.00000 0.00000
								CHANNELS 3 Xrotation Yrotation Zrotation
								End Site
								{
									OFFSET 0.00000 0.00000 3.93700
								}
							}
							JOINT L_Wrist_End
							{
								OFFSET 3.93700 -0.00001 0.00000
								CHANNELS 3 Xrotation Yrotation Zrotation
							}
						}
					}
				}
			}
			JOINT RightShoulder
			{
				OFFSET 0.00000 6.25463 0.00000
				CHANNELS 3 Xrotation Yrotation Zrotation
				JOINT RightArm
				{
					OFFSET -7.44857 -0.00003 0.00000
					CHANNELS 3 Xrotation Yrotation Zrotation
					JOINT RightForeArm
					{
						OFFSET -10.73545 -0.00004 0.00000
						CHANNELS 3 Xrotation Yrotation Zrotation
						JOINT RightHand
						{
							OFFSET -10.15840 -0.00004 0.00000
							CHANNELS 3 Xrotation Yrotation Zrotation
							JOINT RightHandThumb
							{
								OFFSET 0.00000 0.00000 0.00000
								CHANNELS 3 Xrotation Yrotation Zrotation
								End Site
								{
									OFFSET 0.00000 0.00000 3.93700
								}
							}
							JOINT R_Wrist_End
							{
								OFFSET -5.39369 -0.00002 0.00000
								CHANNELS 3 Xrotation Yrotation Zrotation
							}
						}
					}
				}
			}
		}
	}
}
MOTION
Frames: 12
Frame Time: 0.008333
 115.4520 33.8679 -3.3494 -178.3163 2.2651 168.9802 -3.7244 -10.0429 9.5911 41.9861 -0.0000 0.0000 -18.2258 -7.3935 -22.7709 -11.4059 0.0000 0.0000 -11.7078 -6.2147 -8.6505 36.9155 -0.0000 0.0000 -7.6153 -3.8389 9.2239 -0.2424 -0.0000 -0.0000 -5.6506 1.5599 2.6564 4.0914 -0.1451 -0.6309 27.1017 17.5911 2.7373 -2.8811 6.5403 -10.3301 20.3425 -3.7175 28.2516 -0.2902 -16.7554 -94.1790 -0.0008 -74.9827 -0.0006 -26.1461 10.9854 -1.8127 0.0000 0.0000 0.0000 0.0000 0.0000 0.0000 22.5562 -7.6957 -22.4030 5.0421 11.6494 87.9400 -179.9989 78.9787 179.9987 -44.7368 27.1686 24.4626 0.0000 -0.0000 0.0000 0.0000 -0.0000 0.0000
 115.4488 33.8059 -3.3803 -179.5435 0.6341 170.1543 -5.2348 -11.0991 8.3132 42.3183 -0.0000 0.0000 -18.1346 -7.4452 -22.3003 -11.5863 -0.0000 -0.0000 -12.2531 -4.7488 -10.2295 34.1751 -0.0000 -0.0000 -7.1765 -3.4902 9.9871 -0.3452 -0.0000 -0.0000 -5.8121 1.6208 2.6652 3.4975 -0.1767 -2.0683 26.7739 18.1907 2.6907 -3.0708 6.8396 -10.6967 19.9815 -3.6644 28.2405 -1.4429 -16.5618 -94.2742 -0.0008 -75.4183 -0.0006 -24.9236 11.2435 -2.5726 0.0000 0.0000 0.0000 0.0000 0.0000 0.0000 22.7778 -7.5708 -22.0315 5.3670 11.7392 88.3664 -179.9988 79.8354 179.9986 -43.9949 27.4420 23.8412 -0.0000 -0.0000 -0.0000 -0.0000 -0.0000 -0.0000
 115.5130 33.7505 -3.4562 -179.9090 -1.2153 170.3289 -5.7255 -11.9666 8.1650 42.9037 -0.0000 0.0000 -18.4053 -7.5911 -21.8162 -11.7318 0.0000 -0.0000 -11.4831 -3.3179 -10.7100 31.2523 -0.0000 -0.0000 -6.4348 -3.7152 10.3013 -0.4411 0.0000 -0.0000 -5.5649 1.7591 2.7850 3.4202 -0.0587 -2.0783 26.8045 19.0264 2.1183 -3.8572 6.3906 -10.9814 19.5682 -4.0721 27.8625 -2.7018 -16.3879 -94.4448 -0.0008 -75.7181 -0.0006 -23.5533 11.4637 -3.3092 -0.0000 0.0000 0.0000 -0.0000 0.0000 0.0000 22.9962 -7.8887 -22.0379 5.5814 11.7065 88.8528 -179.9987 80.8815 179.9985 -43.5818 27.4376 23.5939 -0.0000 -0.0000 -0.0000 -0.0000 -0.0000 -0.0000
 115.5696 33.6735 -3.5174 179.6081 -3.0584 170.5739 -6.5167 -12.7113 7.8517 43.7393 -0.0000 0.0000 -18.8684 -7.5568 -21.1670 -11.5503 0.0000 -0.0000 -10.9055 -1.8765 -11.3468 28.7087 -0.0000 -0.0000 -5.7437 -4.2487 10.3987 -0.3504 -0.0000 -0.0000 -5.2818 1.7658 2.8809 3.1809 -0.0757 -2.2268 26.7466 19.7834 1.6651 -4.2968 6.2183 -11.5651 19.2180 -4.2664 27.5272 -3.7912 -16.0696 -94.7611 -0.0009 -76.1804 -0.0007 -21.9882 11.7123 -3.7220 0.0000 0.0000 -0.0000 0.0000 0.0000 -0.0000 23.4048 -7.9899 -22.0432 5.5842 11.7883 89.2046 -179.9985 82.0824 179.9983 -42.9787 27.6807 23.0943 -0.0000 -0.0000 0.0000 -0.0000 -0.0000 0.0000
 115.6172 33.5609 -3.5312 178.8043 -4.7485 170.7969 -7.9547 -13.1972 7.4441 45.1156 -0.0000 0.0000 -19.8545 -7.1165 -20.6918 -6.8296 0.0000 0.0000 -10.9959 -0.6355 -12.1409 26.8229 -0.0000 0.0000 -5.2045 -4.6841 9.8182 0.4808 0.0000 0.0000 -5.0728 1.8047 3.1287 2.7611 -0.0494 -2.5913 26.6571 20.7659 1.1220 -4.8604 5.8484 -11.9801 18.8215 -4.3953 27.3790 -4.7914 -15.7272 -95.2044 -0.0009 -76.6772 -0.0007 -20.4742 11.6396 -4.2302 -0.0000 0.0000 -0.0000 -0.0000 0.0000 -0.0000 23.4048 -7.6563 -22.1647 6.1636 11.6727 89.6415 -179.9982 83.2324 179.9980 -42.2534 27.8422 22.3570 -0.0000 -0.0000 0.0000 -0.0000 -0.0000 0.0000
 115.6917 33.4319 -3.5477 178.1161 -6.3485 170.8396 -9.3262 -13.2564 7.3128 46.5251 -0.0000 0.0000 -20.3957 -6.8922 -20.6611 -7.1366 0.0000 0.0000 -10.9904 0.6079 -12.7456 25.2358 -0.0000 0.0000 -4.5192 -5.5120 9.6062 0.5708 0.0000 -0.0000 -4.8629 1.9638 3.4261 2.4907 0.0951 -2.8336 26.6379 21.5579 0.6517 -5.5404 5.5229 -12.4982 18.5621 -4.5448 27.3036 -5.8680 -15.4212 -95.6161 -0.0009 -77.2538 -0.0007 -19.1661 11.5804 -4.3173 0.0000 -0.0000 0.0000 0.0000 -0.0000 0.0000 23.5901 -7.4888 -22.2755 6.4457 11.6175 90.0802 -179.9978 84.5446 179.9976 -41.7648 28.1446 21.5425 -0.0000 0.0000 -0.0000 -0.0000 0.0000 -0.0000
 115.7686 33.2750 -3.5498 177.3939 -7.8992 170.8753 -10.9126 -13.0582 7.1236 48.2981 -0.0000 0.0000 -21.2004 -6.2684 -21.0175 -4.7767 0.0000 -0.0000 -11.2511 1.4519 -13.4632 24.1127 -0.0000 -0.0000 -3.8622 -6.2618 9.4445 1.5431 -0.0000 0.0000 -4.7055 2.0779 3.6549 2.3465 0.2117 -2.9998 26.5518 22.4011 0.1146 -6.1568 5.2095 -12.9836 18.2406 -4.8115 27.3040 -6.6224 -14.9024 -96.1382 -0.0010 -77.9603 -0.0008 -18.1460 11.0745 -4.1851 0.0000 -0.0000 0.0000 0.0000 -0.0000 0.0000 23.6247 -6.9866 -22.4525 6.9214 11.5168 90.3604 -179.9971 85.7816 179.9969 -40.6737 28.3820 20.4463 0.0000 -0.0000 0.0000 0.0000 -0.0000 0.0000
 115.8653 33.0916 -3.5621 176.7970 -9.3772 170.7514 -12.4947 -12.4322 7.1896 50.3426 -0.0000 0.0000 -21.7799 -5.8450 -21.4119 -5.2452 -0.0000 -0.0000 -11.4884 2.0185 -14.0133 23.2701 -0.0000 0.0000 -2.8934 -7.0437 9.6159 1.5433 -0.0000 0.0000 -4.4923 2.2566 3.9447 2.2745 0.3824 -3.0715 26.4801 23.0949 -0.3666 -6.7679 4.9837 -13.5312 18.0154 -5.0826 27.3312 -7.2769 -14.3802 -96.6716 -0.0011 -78.8357 -0.0009 -18.6288 10.6492 -4.0226 0.0000 0.0000 -0.0000 0.0000 0.0000 -0.0000 23.7816 -6.6267 -22.6198 7.1683 11.7013 90.5397 -179.9958 87.1222 179.9956 -39.6598 29.1433 18.8520 -0.0000 0.0000 -0.0000 -0.0000 0.0000 -0.0000
 115.9673 32.8825 -3.5632 176.1394 -10.8599 170.6913 -14.3121 -11.6875 7.1638 52.6334 -0.0000 0.0000 -22.5408 -5.3785 -21.6035 -3.7024 -0.0000 0.0000 -11.9475 2.0823 -14.7268 22.6690 -0.0000 0.0000 -1.8570 -7.5589 10.0585 2.1619 0.0000 -0.0000 -4.5125 2.3275 4.1311 2.5881 0.4666 -3.1587 26.2764 23.8238 -0.8765 -7.3167 4.8451 -14.0410 17.6958 -5.1815 27.3559 -7.9070 -13.8592 -97.1114 -0.0011 -79.5863 -0.0010 -18.2070 9.7623 -3.2437 -0.0000 0.0000 0.0000 -0.0000 0.0000 0.0000 23.6718 -5.8672 -22.8349 7.5573 11.8356 90.5659 -179.9926 88.3739 179.9924 -38.3799 29.6927 17.0849 -0.0000 0.0000 0.0000 -0.0000 0.0000 0.0000
 116.0767 32.6456 -3.5727 175.5505 -12.3529 170.6236 -16.1375 -10.7771 7.1882 55.0855 -0.0000 0.0000 -23.2084 -4.9126 -22.1451 -2.9456 0.0000 -0.0000 -12.4365 1.6503 -15.4872 22.2162 -0.0000 -0.0000 -0.6122 -7.7310 10.8302 2.5769 0.0000 -0.0000 -4.4196 2.4096 4.2084 2.7859 0.5604 -3.1076 26.1150 24.4323 -1.3480 -7.7540 4.7435 -14.5729 17.4180 -5.3313 27.3459 -8.3247 -13.4332 -97.4976 -0.0012 -80.2478 -0.0010 -17.8233 8.4784 -1.7188 -0.0000 -0.0000 -0.0000 -0.0000 -0.0000 -0.0000 23.6139 -5.1749 -23.0160 7.8842 12.2282 90.3180 -179.9657 89.6482 179.9655 -37.0196 30.2191 15.2595 0.0000 -0.0000 0.0000 0.0000 -0.0000 0.0000
 116.2116 32.3799 -3.5807 174.9463 -13.8822 170.4236 -18.1132 -9.7627 7.4182 57.7882 -0.0000 0.0000 -23.7809 -4.6102 -22.5892 -3.6392 -0.0000 0.0000 -12.7811 1.5048 -16.0866 22.2872 -0.0000 0.0000 -0.2781 -8.4173 13.9011 0.4893 -0.0000 0.0000 -4.0180 2.5496 4.2872 2.5260 0.6828 -3.0342 25.8202 24.7423 -1.6002 -7.9358 4.9104 -15.1192 17.2866 -5.3988 27.2832 -8.6711 -13.6556 -97.4490 -0.0013 -80.9207 -0.0011 -17.9287 7.2500 1.0959 0.0000 -0.0000 -0.0000 0.0000 -0.0000 -0.0000 23.6246 -4.8279 -23.0390 8.0667 13.1470 89.7611 -0.0120 88.9950 0.0118 -35.8050 30.6165 13.5719 0.0000 0.0000 0.0000 0.0000 0.0000 0.0000
 116.3487 32.0910 -3.5875 174.2548 -15.4152 170.3058 -20.2996 -8.6147 7.5602 60.6764 -0.0000 0.0000 -24.4494 -4.2145 -22.9841 -2.6632 0.0000 0.0000 -13.5228 0.5971 -16.8913 23.1323 -0.0000 0.0000 -2.2034 -8.1209 15.7992 1.6206 0.0000 -0.0000 -3.9345 2.5454 4.1690 2.5733 0.7087 -2.8419 25.7261 25.2235 -2.0364 -8.2062 4.9366 -15.5425 17.1913 -5.4635 27.1969 -8.9494 -13.5574 -97.4764 -0.0014 -81.2911 -0.0012 -18.2023 5.8641 3.5930 0.0000 0.0000 -0.0000 0.0000 0.0000 -0.0000 23.5576 -4.0234 -23.2288 8.3243 13.9194 89.2252 -0.0052 87.6601 0.0049 -34.2265 30.7723 12.0498 0.0000 -0.0000 -0.0000 0.0000 -0.0000 -0.0000
